<?xml version="1.0" standalone="no"?>
<svg xmlns:xlink="http://www.w3.org/1999/xlink" id="wave" style="transform:rotate(0deg); transition: 0.3s" viewBox="0 0 1440 390" version="1.1" xmlns="http://www.w3.org/2000/svg"><defs><linearGradient id="sw-gradient-0" x1="0" x2="0" y1="1" y2="0"><stop stop-color="rgba(62, 188.424, 243, 1)" offset="0%"/><stop stop-color="rgba(11, 98.763, 255, 1)" offset="100%"/></linearGradient></defs><path style="transform:translate(0, 0px); opacity:1" fill="url(#sw-gradient-0)" d="M0,0L48,13C96,26,192,52,288,104C384,156,480,234,576,247C672,260,768,208,864,188.5C960,169,1056,182,1152,188.5C1248,195,1344,195,1440,208C1536,221,1632,247,1728,260C1824,273,1920,273,2016,279.5C2112,286,2208,299,2304,286C2400,273,2496,234,2592,182C2688,130,2784,65,2880,91C2976,117,3072,234,3168,279.5C3264,325,3360,299,3456,292.5C3552,286,3648,299,3744,279.5C3840,260,3936,208,4032,169C4128,130,4224,104,4320,104C4416,104,4512,130,4608,123.5C4704,117,4800,78,4896,78C4992,78,5088,117,5184,169C5280,221,5376,286,5472,299C5568,312,5664,273,5760,266.5C5856,260,5952,286,6048,273C6144,260,6240,208,6336,175.5C6432,143,6528,130,6624,117C6720,104,6816,91,6864,84.5L6912,78L6912,390L6864,390C6816,390,6720,390,6624,390C6528,390,6432,390,6336,390C6240,390,6144,390,6048,390C5952,390,5856,390,5760,390C5664,390,5568,390,5472,390C5376,390,5280,390,5184,390C5088,390,4992,390,4896,390C4800,390,4704,390,4608,390C4512,390,4416,390,4320,390C4224,390,4128,390,4032,390C3936,390,3840,390,3744,390C3648,390,3552,390,3456,390C3360,390,3264,390,3168,390C3072,390,2976,390,2880,390C2784,390,2688,390,2592,390C2496,390,2400,390,2304,390C2208,390,2112,390,2016,390C1920,390,1824,390,1728,390C1632,390,1536,390,1440,390C1344,390,1248,390,1152,390C1056,390,960,390,864,390C768,390,672,390,576,390C480,390,384,390,288,390C192,390,96,390,48,390L0,390Z"/><defs><linearGradient id="sw-gradient-1" x1="0" x2="0" y1="1" y2="0"><stop stop-color="rgba(15.367, 123.435, 233.598, 1)" offset="0%"/><stop stop-color="rgba(19.821, 114.409, 210.83, 1)" offset="100%"/></linearGradient></defs><path style="transform:translate(0, 50px); opacity:0.9" fill="url(#sw-gradient-1)" d="M0,156L48,136.5C96,117,192,78,288,52C384,26,480,13,576,65C672,117,768,234,864,240.5C960,247,1056,143,1152,97.5C1248,52,1344,65,1440,78C1536,91,1632,104,1728,117C1824,130,1920,143,2016,143C2112,143,2208,130,2304,149.5C2400,169,2496,221,2592,247C2688,273,2784,273,2880,247C2976,221,3072,169,3168,169C3264,169,3360,221,3456,221C3552,221,3648,169,3744,156C3840,143,3936,169,4032,156C4128,143,4224,91,4320,58.5C4416,26,4512,13,4608,6.5C4704,0,4800,0,4896,6.5C4992,13,5088,26,5184,65C5280,104,5376,169,5472,169C5568,169,5664,104,5760,71.5C5856,39,5952,39,6048,52C6144,65,6240,91,6336,117C6432,143,6528,169,6624,169C6720,169,6816,143,6864,130L6912,117L6912,390L6864,390C6816,390,6720,390,6624,390C6528,390,6432,390,6336,390C6240,390,6144,390,6048,390C5952,390,5856,390,5760,390C5664,390,5568,390,5472,390C5376,390,5280,390,5184,390C5088,390,4992,390,4896,390C4800,390,4704,390,4608,390C4512,390,4416,390,4320,390C4224,390,4128,390,4032,390C3936,390,3840,390,3744,390C3648,390,3552,390,3456,390C3360,390,3264,390,3168,390C3072,390,2976,390,2880,390C2784,390,2688,390,2592,390C2496,390,2400,390,2304,390C2208,390,2112,390,2016,390C1920,390,1824,390,1728,390C1632,390,1536,390,1440,390C1344,390,1248,390,1152,390C1056,390,960,390,864,390C768,390,672,390,576,390C480,390,384,390,288,390C192,390,96,390,48,390L0,390Z"/><defs><linearGradient id="sw-gradient-2" x1="0" x2="0" y1="1" y2="0"><stop stop-color="rgba(39.232, 116.315, 194.893, 1)" offset="0%"/><stop stop-color="rgba(11, 173.162, 255, 1)" offset="100%"/></linearGradient></defs><path style="transform:translate(0, 100px); opacity:0.8" fill="url(#sw-gradient-2)" d="M0,273L48,273C96,273,192,273,288,253.5C384,234,480,195,576,195C672,195,768,234,864,240.5C960,247,1056,221,1152,221C1248,221,1344,247,1440,273C1536,299,1632,325,1728,305.5C1824,286,1920,221,2016,162.5C2112,104,2208,52,2304,84.5C2400,117,2496,234,2592,240.5C2688,247,2784,143,2880,123.5C2976,104,3072,169,3168,208C3264,247,3360,260,3456,260C3552,260,3648,247,3744,214.5C3840,182,3936,130,4032,97.5C4128,65,4224,52,4320,45.5C4416,39,4512,39,4608,91C4704,143,4800,247,4896,299C4992,351,5088,351,5184,338C5280,325,5376,299,5472,260C5568,221,5664,169,5760,169C5856,169,5952,221,6048,260C6144,299,6240,325,6336,318.5C6432,312,6528,273,6624,247C6720,221,6816,208,6864,201.5L6912,195L6912,390L6864,390C6816,390,6720,390,6624,390C6528,390,6432,390,6336,390C6240,390,6144,390,6048,390C5952,390,5856,390,5760,390C5664,390,5568,390,5472,390C5376,390,5280,390,5184,390C5088,390,4992,390,4896,390C4800,390,4704,390,4608,390C4512,390,4416,390,4320,390C4224,390,4128,390,4032,390C3936,390,3840,390,3744,390C3648,390,3552,390,3456,390C3360,390,3264,390,3168,390C3072,390,2976,390,2880,390C2784,390,2688,390,2592,390C2496,390,2400,390,2304,390C2208,390,2112,390,2016,390C1920,390,1824,390,1728,390C1632,390,1536,390,1440,390C1344,390,1248,390,1152,390C1056,390,960,390,864,390C768,390,672,390,576,390C480,390,384,390,288,390C192,390,96,390,48,390L0,390Z"/></svg>