<svg id="wave" style="transform:rotate(0deg); transition: 0.3s" viewBox="0 0 1440 490" version="1.1" xmlns="http://www.w3.org/2000/svg"><defs><linearGradient id="sw-gradient-0" x1="0" x2="0" y1="1" y2="0"><stop stop-color="rgba(62, 194.556, 243, 1)" offset="0%"></stop><stop stop-color="rgba(11, 181.428, 255, 1)" offset="100%"></stop></linearGradient></defs><path style="transform:translate(0, 0px); opacity:1" fill="url(#sw-gradient-0)" d="M0,392L60,334.8C120,278,240,163,360,114.3C480,65,600,82,720,147C840,212,960,327,1080,375.7C1200,425,1320,408,1440,400.2C1560,392,1680,392,1800,375.7C1920,359,2040,327,2160,277.7C2280,229,2400,163,2520,187.8C2640,212,2760,327,2880,310.3C3000,294,3120,147,3240,114.3C3360,82,3480,163,3600,196C3720,229,3840,212,3960,236.8C4080,261,4200,327,4320,318.5C4440,310,4560,229,4680,220.5C4800,212,4920,278,5040,261.3C5160,245,5280,147,5400,122.5C5520,98,5640,147,5760,171.5C5880,196,6000,196,6120,212.3C6240,229,6360,261,6480,261.3C6600,261,6720,229,6840,212.3C6960,196,7080,196,7200,204.2C7320,212,7440,229,7560,220.5C7680,212,7800,180,7920,204.2C8040,229,8160,310,8280,310.3C8400,310,8520,229,8580,187.8L8640,147L8640,490L8580,490C8520,490,8400,490,8280,490C8160,490,8040,490,7920,490C7800,490,7680,490,7560,490C7440,490,7320,490,7200,490C7080,490,6960,490,6840,490C6720,490,6600,490,6480,490C6360,490,6240,490,6120,490C6000,490,5880,490,5760,490C5640,490,5520,490,5400,490C5280,490,5160,490,5040,490C4920,490,4800,490,4680,490C4560,490,4440,490,4320,490C4200,490,4080,490,3960,490C3840,490,3720,490,3600,490C3480,490,3360,490,3240,490C3120,490,3000,490,2880,490C2760,490,2640,490,2520,490C2400,490,2280,490,2160,490C2040,490,1920,490,1800,490C1680,490,1560,490,1440,490C1320,490,1200,490,1080,490C960,490,840,490,720,490C600,490,480,490,360,490C240,490,120,490,60,490L0,490Z"></path><defs><linearGradient id="sw-gradient-1" x1="0" x2="0" y1="1" y2="0"><stop stop-color="rgba(62, 231.349, 243, 1)" offset="0%"></stop><stop stop-color="rgba(11, 107.029, 255, 1)" offset="100%"></stop></linearGradient></defs><path style="transform:translate(0, 50px); opacity:0.9" fill="url(#sw-gradient-1)" d="M0,147L60,196C120,245,240,343,360,334.8C480,327,600,212,720,155.2C840,98,960,98,1080,147C1200,196,1320,294,1440,351.2C1560,408,1680,425,1800,400.2C1920,376,2040,310,2160,277.7C2280,245,2400,245,2520,277.7C2640,310,2760,376,2880,351.2C3000,327,3120,212,3240,155.2C3360,98,3480,98,3600,147C3720,196,3840,294,3960,351.2C4080,408,4200,425,4320,359.3C4440,294,4560,147,4680,98C4800,49,4920,98,5040,130.7C5160,163,5280,180,5400,187.8C5520,196,5640,196,5760,228.7C5880,261,6000,327,6120,302.2C6240,278,6360,163,6480,106.2C6600,49,6720,49,6840,81.7C6960,114,7080,180,7200,196C7320,212,7440,180,7560,163.3C7680,147,7800,147,7920,122.5C8040,98,8160,49,8280,81.7C8400,114,8520,229,8580,285.8L8640,343L8640,490L8580,490C8520,490,8400,490,8280,490C8160,490,8040,490,7920,490C7800,490,7680,490,7560,490C7440,490,7320,490,7200,490C7080,490,6960,490,6840,490C6720,490,6600,490,6480,490C6360,490,6240,490,6120,490C6000,490,5880,490,5760,490C5640,490,5520,490,5400,490C5280,490,5160,490,5040,490C4920,490,4800,490,4680,490C4560,490,4440,490,4320,490C4200,490,4080,490,3960,490C3840,490,3720,490,3600,490C3480,490,3360,490,3240,490C3120,490,3000,490,2880,490C2760,490,2640,490,2520,490C2400,490,2280,490,2160,490C2040,490,1920,490,1800,490C1680,490,1560,490,1440,490C1320,490,1200,490,1080,490C960,490,840,490,720,490C600,490,480,490,360,490C240,490,120,490,60,490L0,490Z"></path><defs><linearGradient id="sw-gradient-2" x1="0" x2="0" y1="1" y2="0"><stop stop-color="rgba(22.176, 207.64, 235.875, 1)" offset="0%"></stop><stop stop-color="rgba(16.198, 77.669, 226.768, 1)" offset="100%"></stop></linearGradient></defs><path style="transform:translate(0, 100px); opacity:0.8" fill="url(#sw-gradient-2)" d="M0,441L60,375.7C120,310,240,180,360,138.8C480,98,600,147,720,171.5C840,196,960,196,1080,204.2C1200,212,1320,229,1440,261.3C1560,294,1680,343,1800,326.7C1920,310,2040,229,2160,179.7C2280,131,2400,114,2520,147C2640,180,2760,261,2880,269.5C3000,278,3120,212,3240,220.5C3360,229,3480,310,3600,351.2C3720,392,3840,392,3960,334.8C4080,278,4200,163,4320,130.7C4440,98,4560,147,4680,171.5C4800,196,4920,196,5040,204.2C5160,212,5280,229,5400,236.8C5520,245,5640,245,5760,245C5880,245,6000,245,6120,253.2C6240,261,6360,278,6480,285.8C6600,294,6720,294,6840,277.7C6960,261,7080,229,7200,187.8C7320,147,7440,98,7560,81.7C7680,65,7800,82,7920,114.3C8040,147,8160,196,8280,196C8400,196,8520,147,8580,122.5L8640,98L8640,490L8580,490C8520,490,8400,490,8280,490C8160,490,8040,490,7920,490C7800,490,7680,490,7560,490C7440,490,7320,490,7200,490C7080,490,6960,490,6840,490C6720,490,6600,490,6480,490C6360,490,6240,490,6120,490C6000,490,5880,490,5760,490C5640,490,5520,490,5400,490C5280,490,5160,490,5040,490C4920,490,4800,490,4680,490C4560,490,4440,490,4320,490C4200,490,4080,490,3960,490C3840,490,3720,490,3600,490C3480,490,3360,490,3240,490C3120,490,3000,490,2880,490C2760,490,2640,490,2520,490C2400,490,2280,490,2160,490C2040,490,1920,490,1800,490C1680,490,1560,490,1440,490C1320,490,1200,490,1080,490C960,490,840,490,720,490C600,490,480,490,360,490C240,490,120,490,60,490L0,490Z"></path><defs><linearGradient id="sw-gradient-3" x1="0" x2="0" y1="1" y2="0"><stop stop-color="rgba(62, 219.085, 243, 1)" offset="0%"></stop><stop stop-color="rgba(11, 24.365, 255, 1)" offset="100%"></stop></linearGradient></defs><path style="transform:translate(0, 150px); opacity:0.7" fill="url(#sw-gradient-3)" d="M0,49L60,65.3C120,82,240,114,360,163.3C480,212,600,278,720,269.5C840,261,960,180,1080,122.5C1200,65,1320,33,1440,57.2C1560,82,1680,163,1800,236.8C1920,310,2040,376,2160,343C2280,310,2400,180,2520,163.3C2640,147,2760,245,2880,310.3C3000,376,3120,408,3240,416.5C3360,425,3480,408,3600,334.8C3720,261,3840,131,3960,106.2C4080,82,4200,163,4320,171.5C4440,180,4560,114,4680,122.5C4800,131,4920,212,5040,253.2C5160,294,5280,294,5400,285.8C5520,278,5640,261,5760,253.2C5880,245,6000,245,6120,261.3C6240,278,6360,310,6480,294C6600,278,6720,212,6840,187.8C6960,163,7080,180,7200,171.5C7320,163,7440,131,7560,163.3C7680,196,7800,294,7920,334.8C8040,376,8160,359,8280,367.5C8400,376,8520,408,8580,424.7L8640,441L8640,490L8580,490C8520,490,8400,490,8280,490C8160,490,8040,490,7920,490C7800,490,7680,490,7560,490C7440,490,7320,490,7200,490C7080,490,6960,490,6840,490C6720,490,6600,490,6480,490C6360,490,6240,490,6120,490C6000,490,5880,490,5760,490C5640,490,5520,490,5400,490C5280,490,5160,490,5040,490C4920,490,4800,490,4680,490C4560,490,4440,490,4320,490C4200,490,4080,490,3960,490C3840,490,3720,490,3600,490C3480,490,3360,490,3240,490C3120,490,3000,490,2880,490C2760,490,2640,490,2520,490C2400,490,2280,490,2160,490C2040,490,1920,490,1800,490C1680,490,1560,490,1440,490C1320,490,1200,490,1080,490C960,490,840,490,720,490C600,490,480,490,360,490C240,490,120,490,60,490L0,490Z"></path></svg>